<svg width="383" height="120" viewBox="0 0 383 120" fill="none" xmlns="http://www.w3.org/2000/svg">
    <g clip-path="url(#clip0_30_7)">
        <path
            d="M42.75 99.97C46.91 99.97 50.34 99.34 53.03 98.08C55.71 96.82 57.8 95.12 59.28 92.98C60.76 90.84 61.77 88.38 62.32 85.58C62.87 82.79 63.14 79.91 63.14 76.95V73.99H84.84V76.95C84.84 90.65 81.25 101.2 74.07 108.6C66.89 116 56.45 119.7 42.75 119.7C29.05 119.7 19.18 115.7 11.51 107.7C3.83 99.69 0 88.02 0 72.67V47.02C0 39.68 0.99 33.07 2.96 27.21C4.93 21.35 7.78 16.42 11.51 12.41C15.24 8.41 19.73 5.34 24.99 3.2C30.25 1.07 36.17 0 42.75 0C49.33 0 55.57 0.99 60.84 2.96C66.1 4.93 70.51 7.79 74.08 11.51C77.64 15.24 80.33 19.73 82.14 24.99C83.95 30.25 84.85 36.17 84.85 42.75V45.71H63.15V42.75C63.15 40.01 62.82 37.27 62.16 34.53C61.5 31.79 60.4 29.32 58.87 27.13C57.33 24.94 55.25 23.16 52.62 21.79C49.99 20.42 46.7 19.73 42.75 19.73C39.13 19.73 36.01 20.42 33.38 21.79C30.75 23.16 28.55 25.02 26.8 27.38C25.05 29.74 23.76 32.48 22.94 35.6C22.12 38.72 21.71 41.99 21.71 45.38V74.32C21.71 78.05 22.09 81.47 22.86 84.6C23.63 87.72 24.83 90.44 26.48 92.74C28.12 95.04 30.29 96.82 32.97 98.08C35.66 99.34 38.92 99.97 42.75 99.97Z"
            fill="white" />
        <path
            d="M162.28 37.49C162.28 32.89 160.5 28.89 156.94 25.49C153.38 22.09 148.36 20.39 141.9 20.39C136.42 20.39 132.09 21.51 128.91 23.76C125.73 26.01 124.14 29.05 124.14 32.89C124.14 34.86 124.52 36.65 125.29 38.23C126.06 39.82 127.4 41.25 129.32 42.5C131.24 43.76 133.76 44.88 136.88 45.87C140 46.86 143.98 47.79 148.8 48.66C160.86 50.85 170.06 54.53 176.42 59.68C182.78 64.83 185.96 72.45 185.96 82.53V84.5C185.96 89.87 185 94.72 183.08 99.05C181.16 103.38 178.39 107.08 174.78 110.15C171.16 113.22 166.78 115.58 161.63 117.22C156.48 118.86 150.67 119.69 144.2 119.69C136.64 119.69 129.98 118.62 124.22 116.48C118.47 114.34 113.67 111.38 109.83 107.6C105.99 103.82 103.09 99.38 101.12 94.28C99.15 89.18 98.16 83.62 98.16 77.59V72.66H119.86V76.61C119.86 83.52 121.86 89.02 125.86 93.13C129.86 97.24 136.08 99.3 144.52 99.3C151.1 99.3 155.97 97.88 159.15 95.03C162.33 92.18 163.92 88.78 163.92 84.84C163.92 82.98 163.59 81.2 162.93 79.5C162.27 77.8 161.12 76.27 159.48 74.9C157.84 73.53 155.59 72.3 152.74 71.2C149.89 70.11 146.27 69.17 141.89 68.41C136.08 67.42 130.76 66.14 125.94 64.55C121.11 62.96 116.92 60.85 113.36 58.22C109.8 55.59 107.03 52.3 105.06 48.35C103.09 44.4 102.1 39.58 102.1 33.88V32.89C102.1 28.18 103.06 23.82 104.98 19.82C106.9 15.82 109.58 12.34 113.04 9.38C116.5 6.42 120.66 4.12 125.54 2.47C130.42 0.83 135.87 0 141.9 0C148.69 0 154.73 0.96 159.99 2.88C165.25 4.8 169.66 7.4 173.23 10.69C176.79 13.98 179.48 17.76 181.29 22.04C183.1 26.32 184 30.81 184 35.52V41.44H162.3V37.49H162.28Z"
            fill="white" />
        <path
            d="M256.67 106.54H259.63V2.3H281.33V117.4H238.91L225.43 13.16H222.47V117.4H200.77V2.3H243.19L256.67 106.54Z"
            fill="white" />
        <path
            d="M297.73 47.02C297.73 32.11 301.48 20.55 308.99 12.33C316.5 4.11 326.88 0 340.15 0C353.42 0 363.8 4.11 371.31 12.33C378.82 20.55 382.57 32.12 382.57 47.02V72.67C382.57 88.02 378.81 99.69 371.31 107.69C363.8 115.69 353.41 119.69 340.15 119.69C326.89 119.69 316.5 115.69 308.99 107.69C301.48 99.69 297.73 88.02 297.73 72.67V47.02ZM340.15 99.96C344.1 99.96 347.38 99.33 350.02 98.07C352.65 96.81 354.79 95.03 356.43 92.73C358.07 90.43 359.22 87.69 359.88 84.51C360.54 81.33 360.87 77.83 360.87 73.99V45.71C360.87 42.09 360.49 38.7 359.72 35.52C358.95 32.34 357.75 29.6 356.1 27.3C354.46 25 352.32 23.16 349.69 21.79C347.06 20.42 343.88 19.73 340.15 19.73C336.42 19.73 333.24 20.42 330.61 21.79C327.98 23.16 325.84 25 324.2 27.3C322.56 29.6 321.35 32.34 320.58 35.52C319.81 38.7 319.43 42.1 319.43 45.71V73.99C319.43 77.83 319.76 81.34 320.42 84.51C321.08 87.69 322.23 90.43 323.87 92.73C325.51 95.03 327.65 96.81 330.28 98.07C332.91 99.33 336.2 99.96 340.15 99.96Z"
            fill="white" />
    </g>
    <defs>
        <clipPath id="clip0_30_7">
            <rect width="382.57" height="119.7" fill="white" />
        </clipPath>
    </defs>
</svg>
    